<mxfile host="app.diagrams.net" agent="Mozilla/5.0 (Windows NT 10.0; Win64; x64) AppleWebKit/537.36 (KHTML, like Gecko) Chrome/137.0.0.0 Safari/537.36" version="24.8.6">
  <diagram name="Page-1" id="fYXxGlgPMz8HsoacvrHg">
    <mxGraphModel dx="1618" dy="462" grid="1" gridSize="10" guides="1" tooltips="1" connect="1" arrows="1" fold="1" page="1" pageScale="1" pageWidth="827" pageHeight="1169" math="0" shadow="0">
      <root>
        <mxCell id="0" />
        <mxCell id="1" parent="0" />
        <mxCell id="h4ovHBpf6mh58sQloEX4-3" value="" style="edgeStyle=orthogonalEdgeStyle;rounded=0;orthogonalLoop=1;jettySize=auto;html=1;" edge="1" parent="1" source="h4ovHBpf6mh58sQloEX4-1" target="h4ovHBpf6mh58sQloEX4-2">
          <mxGeometry relative="1" as="geometry" />
        </mxCell>
        <mxCell id="h4ovHBpf6mh58sQloEX4-1" value="Start" style="ellipse;whiteSpace=wrap;html=1;" vertex="1" parent="1">
          <mxGeometry x="200" y="90" width="120" height="80" as="geometry" />
        </mxCell>
        <mxCell id="h4ovHBpf6mh58sQloEX4-9" style="edgeStyle=orthogonalEdgeStyle;rounded=0;orthogonalLoop=1;jettySize=auto;html=1;entryX=0.5;entryY=0;entryDx=0;entryDy=0;" edge="1" parent="1" source="h4ovHBpf6mh58sQloEX4-2" target="h4ovHBpf6mh58sQloEX4-4">
          <mxGeometry relative="1" as="geometry" />
        </mxCell>
        <mxCell id="h4ovHBpf6mh58sQloEX4-2" value="Input Video" style="rounded=0;whiteSpace=wrap;html=1;" vertex="1" parent="1">
          <mxGeometry x="200" y="210" width="120" height="60" as="geometry" />
        </mxCell>
        <mxCell id="h4ovHBpf6mh58sQloEX4-11" value="" style="edgeStyle=orthogonalEdgeStyle;rounded=0;orthogonalLoop=1;jettySize=auto;html=1;" edge="1" parent="1" source="h4ovHBpf6mh58sQloEX4-4" target="h4ovHBpf6mh58sQloEX4-10">
          <mxGeometry relative="1" as="geometry" />
        </mxCell>
        <mxCell id="h4ovHBpf6mh58sQloEX4-4" value="Person Detection" style="rounded=0;whiteSpace=wrap;html=1;" vertex="1" parent="1">
          <mxGeometry x="30" y="332.5" width="100" height="50" as="geometry" />
        </mxCell>
        <mxCell id="h4ovHBpf6mh58sQloEX4-17" value="" style="edgeStyle=orthogonalEdgeStyle;rounded=0;orthogonalLoop=1;jettySize=auto;html=1;" edge="1" parent="1" source="h4ovHBpf6mh58sQloEX4-10" target="h4ovHBpf6mh58sQloEX4-16">
          <mxGeometry relative="1" as="geometry" />
        </mxCell>
        <mxCell id="h4ovHBpf6mh58sQloEX4-39" value="Yes" style="edgeLabel;html=1;align=center;verticalAlign=middle;resizable=0;points=[];" vertex="1" connectable="0" parent="h4ovHBpf6mh58sQloEX4-17">
          <mxGeometry x="-0.2542" y="-1" relative="1" as="geometry">
            <mxPoint as="offset" />
          </mxGeometry>
        </mxCell>
        <mxCell id="h4ovHBpf6mh58sQloEX4-24" value="" style="edgeStyle=orthogonalEdgeStyle;rounded=0;orthogonalLoop=1;jettySize=auto;html=1;" edge="1" parent="1" source="h4ovHBpf6mh58sQloEX4-10" target="h4ovHBpf6mh58sQloEX4-2">
          <mxGeometry relative="1" as="geometry" />
        </mxCell>
        <mxCell id="h4ovHBpf6mh58sQloEX4-40" value="No" style="edgeLabel;html=1;align=center;verticalAlign=middle;resizable=0;points=[];" vertex="1" connectable="0" parent="h4ovHBpf6mh58sQloEX4-24">
          <mxGeometry x="0.152" relative="1" as="geometry">
            <mxPoint as="offset" />
          </mxGeometry>
        </mxCell>
        <mxCell id="h4ovHBpf6mh58sQloEX4-10" value="If human is&amp;nbsp;&lt;div&gt;detected&lt;/div&gt;" style="rhombus;whiteSpace=wrap;html=1;" vertex="1" parent="1">
          <mxGeometry x="200" y="300" width="120" height="115" as="geometry" />
        </mxCell>
        <mxCell id="h4ovHBpf6mh58sQloEX4-20" value="" style="edgeStyle=orthogonalEdgeStyle;rounded=0;orthogonalLoop=1;jettySize=auto;html=1;" edge="1" parent="1" source="h4ovHBpf6mh58sQloEX4-16" target="h4ovHBpf6mh58sQloEX4-18">
          <mxGeometry relative="1" as="geometry" />
        </mxCell>
        <mxCell id="h4ovHBpf6mh58sQloEX4-16" value="Crop the bounding box" style="rounded=0;whiteSpace=wrap;html=1;" vertex="1" parent="1">
          <mxGeometry x="380" y="327.5" width="120" height="60" as="geometry" />
        </mxCell>
        <mxCell id="h4ovHBpf6mh58sQloEX4-26" value="" style="edgeStyle=orthogonalEdgeStyle;rounded=0;orthogonalLoop=1;jettySize=auto;html=1;" edge="1" parent="1" source="h4ovHBpf6mh58sQloEX4-18" target="h4ovHBpf6mh58sQloEX4-25">
          <mxGeometry relative="1" as="geometry" />
        </mxCell>
        <mxCell id="h4ovHBpf6mh58sQloEX4-18" value="Tag Detection" style="rounded=0;whiteSpace=wrap;html=1;" vertex="1" parent="1">
          <mxGeometry x="380" y="470" width="120" height="60" as="geometry" />
        </mxCell>
        <mxCell id="h4ovHBpf6mh58sQloEX4-28" value="" style="edgeStyle=orthogonalEdgeStyle;rounded=0;orthogonalLoop=1;jettySize=auto;html=1;" edge="1" parent="1" source="h4ovHBpf6mh58sQloEX4-25" target="h4ovHBpf6mh58sQloEX4-27">
          <mxGeometry relative="1" as="geometry" />
        </mxCell>
        <mxCell id="h4ovHBpf6mh58sQloEX4-38" value="Yes" style="edgeLabel;html=1;align=center;verticalAlign=middle;resizable=0;points=[];" vertex="1" connectable="0" parent="h4ovHBpf6mh58sQloEX4-28">
          <mxGeometry x="-0.1902" y="-3" relative="1" as="geometry">
            <mxPoint as="offset" />
          </mxGeometry>
        </mxCell>
        <mxCell id="h4ovHBpf6mh58sQloEX4-25" value="Consecutively&amp;nbsp;&lt;div&gt;detect tags twice&lt;/div&gt;" style="rhombus;whiteSpace=wrap;html=1;" vertex="1" parent="1">
          <mxGeometry x="200" y="440" width="120" height="120" as="geometry" />
        </mxCell>
        <mxCell id="h4ovHBpf6mh58sQloEX4-35" value="" style="edgeStyle=orthogonalEdgeStyle;rounded=0;orthogonalLoop=1;jettySize=auto;html=1;" edge="1" parent="1" source="h4ovHBpf6mh58sQloEX4-27" target="h4ovHBpf6mh58sQloEX4-29">
          <mxGeometry relative="1" as="geometry" />
        </mxCell>
        <mxCell id="h4ovHBpf6mh58sQloEX4-27" value="isStaff = True" style="rounded=0;whiteSpace=wrap;html=1;" vertex="1" parent="1">
          <mxGeometry x="20" y="470" width="120" height="60" as="geometry" />
        </mxCell>
        <mxCell id="h4ovHBpf6mh58sQloEX4-29" value="End" style="ellipse;whiteSpace=wrap;html=1;" vertex="1" parent="1">
          <mxGeometry x="20" y="590" width="120" height="80" as="geometry" />
        </mxCell>
        <mxCell id="h4ovHBpf6mh58sQloEX4-33" style="edgeStyle=orthogonalEdgeStyle;rounded=0;orthogonalLoop=1;jettySize=auto;html=1;entryX=0;entryY=0.5;entryDx=0;entryDy=0;" edge="1" parent="1" source="h4ovHBpf6mh58sQloEX4-31" target="h4ovHBpf6mh58sQloEX4-4">
          <mxGeometry relative="1" as="geometry" />
        </mxCell>
        <mxCell id="h4ovHBpf6mh58sQloEX4-31" value="YOLOv12s&amp;nbsp;&lt;div&gt;pretrained model&lt;/div&gt;" style="rounded=0;whiteSpace=wrap;html=1;fillColor=#fff2cc;strokeColor=#d6b656;" vertex="1" parent="1">
          <mxGeometry x="-160" y="327.5" width="120" height="60" as="geometry" />
        </mxCell>
        <mxCell id="h4ovHBpf6mh58sQloEX4-34" value="" style="edgeStyle=orthogonalEdgeStyle;rounded=0;orthogonalLoop=1;jettySize=auto;html=1;" edge="1" parent="1" source="h4ovHBpf6mh58sQloEX4-32" target="h4ovHBpf6mh58sQloEX4-18">
          <mxGeometry relative="1" as="geometry" />
        </mxCell>
        <mxCell id="h4ovHBpf6mh58sQloEX4-32" value="YOLOv12s&amp;nbsp;&lt;div&gt;fine-tuned model&lt;/div&gt;" style="rounded=0;whiteSpace=wrap;html=1;fillColor=#dae8fc;strokeColor=#6c8ebf;" vertex="1" parent="1">
          <mxGeometry x="580" y="410" width="120" height="60" as="geometry" />
        </mxCell>
        <mxCell id="h4ovHBpf6mh58sQloEX4-37" style="edgeStyle=orthogonalEdgeStyle;rounded=0;orthogonalLoop=1;jettySize=auto;html=1;entryX=0.5;entryY=1;entryDx=0;entryDy=0;" edge="1" parent="1" source="h4ovHBpf6mh58sQloEX4-36" target="h4ovHBpf6mh58sQloEX4-25">
          <mxGeometry relative="1" as="geometry" />
        </mxCell>
        <mxCell id="h4ovHBpf6mh58sQloEX4-36" value="PersonTracker" style="shape=cylinder3;whiteSpace=wrap;html=1;boundedLbl=1;backgroundOutline=1;size=15;" vertex="1" parent="1">
          <mxGeometry x="595" y="560" width="90" height="110" as="geometry" />
        </mxCell>
      </root>
    </mxGraphModel>
  </diagram>
</mxfile>
